<?xml version="1.0" standalone="no"?>
<!DOCTYPE svg PUBLIC "-//W3C//DTD SVG 20010904//EN"
 "http://www.w3.org/TR/2001/REC-SVG-20010904/DTD/svg10.dtd">
<svg version="1.0" xmlns="http://www.w3.org/2000/svg"
 width="619.000000pt" height="470.000000pt" viewBox="0 0 619.000000 470.000000"
 preserveAspectRatio="xMidYMid meet">

<g transform="translate(0.000000,470.000000) scale(0.100000,-0.100000)"
fill="#5765f2" stroke="none">
<path d="M2155 4678 c-371 -69 -781 -194 -1113 -340 l-94 -41 -55 -86 c-493
-760 -769 -1518 -858 -2351 -36 -338 -27 -1045 14 -1077 64 -51 382 -256 501
-324 273 -156 603 -303 903 -403 76 -25 140 -46 141 -46 16 0 249 368 309 486
l26 52 -47 17 c-151 57 -476 220 -470 236 6 16 123 99 133 95 991 -446 2048
-457 3033 -32 l84 36 59 -47 c33 -25 58 -51 56 -57 -5 -14 -318 -173 -429
-217 l-88 -35 71 -124 c39 -69 113 -189 166 -267 89 -135 96 -143 121 -137 60
15 337 115 477 173 301 125 685 337 955 526 107 76 108 77 114 123 14 114 18
717 7 869 -68 881 -351 1705 -847 2465 -93 143 -68 126 -324 228 -176 70 -408
147 -590 194 -135 35 -440 100 -445 94 -5 -5 -152 -303 -156 -317 -4 -10 -30
-10 -129 3 -376 47 -799 47 -1160 1 -63 -8 -117 -15 -121 -15 -3 0 -43 74 -88
165 -45 91 -87 164 -94 164 -7 -1 -34 -5 -62 -11z m85 -1970 c175 -63 302
-203 361 -398 33 -107 33 -274 0 -380 -35 -115 -78 -187 -161 -270 -112 -113
-221 -160 -371 -160 -128 0 -266 57 -363 148 -126 120 -208 341 -192 516 27
296 214 519 476 570 56 10 187 -3 250 -26z m1999 17 c252 -60 441 -317 441
-599 0 -114 -22 -207 -74 -311 -140 -282 -451 -395 -716 -260 -193 98 -322
322 -322 559 0 181 57 328 173 451 138 145 317 202 498 160z"/>
</g>
</svg>
