<svg id="svg" version="1.1" xmlns="http://www.w3.org/2000/svg" xmlns:xlink="http://www.w3.org/1999/xlink" width="400" height="400" viewBox="0, 0, 400,400"><g id="svgg"><path id="path0" d="M108.155 62.889 C 106.360 63.249,104.568 64.680,103.673 66.469 C 103.126 67.562,97.340 112.998,97.501 114.932 C 97.670 116.952,98.997 118.864,100.954 119.907 L 101.959 120.442 117.278 120.497 C 130.385 120.544,132.597 120.594,132.597 120.839 C 132.597 120.996,130.465 129.651,127.860 140.070 C 122.665 160.851,122.725 160.524,123.710 162.431 C 125.511 165.919,130.814 166.682,133.683 163.866 C 134.841 162.729,173.550 106.056,174.041 104.778 C 175.398 101.248,173.436 96.848,169.864 95.412 L 168.659 94.927 153.943 94.871 C 145.849 94.840,139.227 94.786,139.227 94.752 C 139.227 94.718,141.364 89.003,143.977 82.051 C 148.215 70.774,148.727 69.283,148.733 68.207 C 148.744 66.006,147.560 64.145,145.579 63.248 L 144.550 62.783 126.770 62.752 C 116.991 62.736,108.615 62.797,108.155 62.889 M109.292 184.206 C 106.098 185.239,103.816 187.414,102.613 190.574 L 102.160 191.763 102.108 295.881 L 102.057 400.000 135.910 400.000 L 169.764 400.000 169.764 296.275 C 169.764 203.785,169.731 192.423,169.456 191.369 C 168.549 187.886,165.716 185.028,162.256 184.107 C 160.468 183.630,110.784 183.724,109.292 184.206 " stroke="none" fill="#040404" fill-rule="evenodd"></path><path id="path1" d="M51.513 0.217 C 23.708 1.913,1.744 24.260,0.189 52.436 C -0.218 59.819,0.049 349.010,0.466 351.865 C 4.306 378.156,24.625 397.609,50.527 399.793 C 51.982 399.915,62.680 399.997,77.498 399.998 L 102.057 400.000 102.108 295.881 L 102.160 191.763 102.613 190.574 C 103.835 187.365,106.245 185.111,109.479 184.151 C 111.000 183.700,160.572 183.658,162.256 184.107 C 165.716 185.028,168.549 187.886,169.456 191.369 C 169.731 192.423,169.764 203.785,169.764 296.278 L 169.764 400.005 259.920 399.946 C 344.707 399.891,350.213 399.866,352.386 399.534 C 377.326 395.727,395.715 377.338,399.535 352.386 C 399.973 349.524,400.228 56.415,399.797 50.829 C 397.791 24.819,378.286 4.325,351.865 0.466 C 349.273 0.088,57.598 -0.154,51.513 0.217 M145.579 63.248 C 147.560 64.145,148.744 66.006,148.733 68.207 C 148.727 69.283,148.215 70.774,143.977 82.051 C 141.364 89.003,139.227 94.718,139.227 94.752 C 139.227 94.786,145.849 94.840,153.943 94.871 L 168.659 94.927 169.864 95.412 C 173.436 96.848,175.398 101.248,174.041 104.778 C 173.550 106.056,134.841 162.729,133.683 163.866 C 130.814 166.682,125.511 165.919,123.710 162.431 C 122.725 160.524,122.665 160.851,127.860 140.070 C 130.465 129.651,132.597 120.996,132.597 120.839 C 132.597 120.594,130.385 120.544,117.278 120.497 L 101.959 120.442 100.954 119.907 C 98.997 118.864,97.670 116.952,97.501 114.932 C 97.340 112.998,103.126 67.562,103.673 66.469 C 104.568 64.680,106.360 63.249,108.155 62.889 C 108.615 62.797,116.991 62.736,126.770 62.752 L 144.550 62.783 145.579 63.248 " stroke="none" fill="#fcbc24" fill-rule="evenodd"></path></g></svg>